<svg xmlns="http://www.w3.org/2000/svg" xmlns:xlink="http://www.w3.org/1999/xlink" width="1080" zoomAndPan="magnify" viewBox="0 0 810 809.999993" height="1080" preserveAspectRatio="xMidYMid meet" version="1.0"><defs><clipPath id="70f7704eb4"><path d="M 0 576 L 367 576 L 367 781.640625 L 0 781.640625 Z M 0 576 " clip-rule="nonzero"/></clipPath><clipPath id="19a467280f"><path d="M 345 362 L 809.738281 362 L 809.738281 780 L 345 780 Z M 345 362 " clip-rule="nonzero"/></clipPath></defs><rect x="-81" width="972" fill="#ffffff" y="-80.999999" height="971.999992" fill-opacity="1"/><rect x="-81" width="972" fill="#ffffff" y="-80.999999" height="971.999992" fill-opacity="1"/><g clip-path="url(#70f7704eb4)"><path fill="#1f3660" d="M 275.175781 736.300781 L 247.597656 736.300781 L 247.597656 621.824219 L 275.175781 621.824219 Z M 222.46875 736.300781 L 186.789062 736.300781 L 186.789062 621.824219 L 222.46875 621.824219 Z M 161.660156 736.300781 L 103.980469 736.300781 L 103.980469 621.824219 L 161.660156 621.824219 Z M 78.875 736.300781 L 38.757812 736.300781 L 38.757812 621.824219 L 78.875 621.824219 Z M 366.492188 576.480469 L 0 576.480469 L 0 740.007812 C 0 762.96875 18.671875 781.640625 41.632812 781.640625 L 313.808594 781.640625 C 313.808594 781.566406 313.730469 781.566406 313.730469 781.515625 C 299.855469 757.445312 295.386719 730.167969 300.28125 704.003906 L 300.28125 621.824219 L 327.863281 621.824219 L 327.863281 643.445312 L 366.492188 576.480469 " fill-opacity="1" fill-rule="nonzero"/></g><path fill="#1f3660" d="M 122.296875 84.386719 C 127.09375 79.59375 133.828125 76.589844 141.195312 76.589844 L 290.644531 76.589844 C 305.457031 76.589844 317.441406 88.550781 317.441406 103.308594 C 317.441406 110.679688 314.414062 117.414062 309.570312 122.210938 C 304.722656 127.078125 298.089844 130.082031 290.644531 130.082031 L 141.195312 130.082031 C 126.410156 130.082031 114.425781 118.097656 114.425781 103.308594 C 114.425781 95.941406 117.429688 89.230469 122.296875 84.386719 Z M 215.957031 362.617188 C 171.601562 362.617188 135.746094 300.042969 135.746094 255.734375 C 135.746094 211.453125 171.601562 178.476562 215.957031 178.476562 C 260.242188 178.476562 296.121094 211.453125 296.121094 255.734375 C 296.121094 300.042969 260.242188 362.617188 215.957031 362.617188 Z M 71.507812 448.859375 C 80.414062 411.515625 112.207031 383.761719 150.734375 379.75 L 152.878906 379.574219 C 172.230469 395.972656 193.476562 404.273438 215.957031 404.273438 C 238.363281 404.273438 259.636719 395.972656 278.988281 379.574219 L 281.132812 379.75 C 319.636719 383.761719 351.453125 411.515625 360.359375 448.859375 C 364.121094 464.453125 366.820312 480.296875 368.359375 496.269531 L 412.816406 496.269531 L 431.839844 463.34375 L 431.839844 69.703125 C 431.839844 46.742188 413.246094 28.121094 390.210938 28.121094 L 41.632812 28.121094 C 18.671875 28.121094 0 46.742188 0 69.703125 L 0 496.269531 L 63.507812 496.269531 C 65.046875 480.296875 67.746094 464.453125 71.507812 448.859375 " fill-opacity="1" fill-rule="nonzero"/><path fill="#ff5757" d="M 533.347656 691.816406 C 564.863281 712.128906 607.429688 708.570312 634.980469 680.992188 C 650.347656 665.625 658.828125 645.1875 658.828125 623.4375 C 658.828125 607.542969 654.257812 592.378906 645.808594 579.332031 L 533.347656 691.816406 " fill-opacity="1" fill-rule="nonzero"/><path fill="#ff5757" d="M 577.453125 542.089844 C 556.585938 542.089844 535.746094 550.039062 519.898438 565.882812 C 504.507812 581.25 496.054688 601.714844 496.054688 623.4375 C 496.054688 639.335938 500.625 654.5 509.050781 667.542969 L 621.535156 555.058594 C 608.160156 546.429688 592.820312 542.089844 577.453125 542.089844 " fill-opacity="1" fill-rule="nonzero"/><g clip-path="url(#19a467280f)"><path fill="#ff5757" d="M 659.253906 705.265625 C 636.722656 727.820312 607.074219 739.101562 577.453125 739.101562 C 547.808594 739.101562 518.160156 727.820312 495.601562 705.265625 C 473.75 683.414062 461.714844 654.347656 461.714844 623.4375 C 461.714844 592.527344 473.75 563.460938 495.601562 541.613281 C 540.742188 496.496094 614.140625 496.496094 659.253906 541.613281 C 681.132812 563.460938 693.167969 592.527344 693.167969 623.4375 C 693.167969 654.347656 681.132812 683.414062 659.253906 705.265625 Z M 802.015625 694.917969 L 626.53125 390.976562 C 604.730469 353.179688 550.152344 353.179688 528.328125 390.976562 L 352.839844 694.917969 C 331.039062 732.714844 358.316406 779.976562 401.941406 779.976562 L 752.914062 779.976562 C 796.566406 779.976562 823.867188 732.714844 802.015625 694.917969 " fill-opacity="1" fill-rule="nonzero"/></g></svg>