<svg xmlns="http://www.w3.org/2000/svg" xmlns:xlink="http://www.w3.org/1999/xlink" width="1080" zoomAndPan="magnify" viewBox="0 0 810 809.999993" height="1080" preserveAspectRatio="xMidYMid meet" version="1.0"><defs><clipPath id="1ce44fd856"><path d="M 218 248 L 592 248 L 592 621.824219 L 218 621.824219 Z M 218 248 " clip-rule="nonzero"/></clipPath><clipPath id="c60bdf0491"><path d="M 191 188.324219 L 205 188.324219 L 205 239 L 191 239 Z M 191 188.324219 " clip-rule="nonzero"/></clipPath><clipPath id="b2e0c2520a"><path d="M 605 188.324219 L 619 188.324219 L 619 239 L 605 239 Z M 605 188.324219 " clip-rule="nonzero"/></clipPath></defs><path fill="#183d81" d="M 786.277344 268.441406 L 786.277344 483.550781 L 809.570312 483.550781 L 809.570312 539.71875 L 786.277344 539.71875 L 786.277344 597.554688 L 704.34375 597.554688 L 704.34375 539.71875 L 606.601562 539.71875 L 606.601562 483.550781 L 677.652344 268.441406 Z M 704.34375 483.550781 L 704.34375 343.542969 L 667.878906 483.550781 Z M 704.34375 483.550781 " fill-opacity="1" fill-rule="evenodd"/><g clip-path="url(#1ce44fd856)"><path fill="#183d81" d="M 404.957031 248.289062 C 456.519531 248.289062 503.203125 269.199219 536.996094 303.003906 C 570.792969 336.8125 591.695312 383.511719 591.695312 435.09375 C 591.695312 486.671875 570.792969 533.371094 536.996094 567.179688 C 503.203125 600.984375 456.519531 621.894531 404.957031 621.894531 C 353.394531 621.894531 306.710938 600.984375 272.917969 567.179688 C 239.121094 533.371094 218.21875 486.671875 218.21875 435.09375 C 218.21875 383.511719 239.121094 336.8125 272.917969 303.003906 C 306.710938 269.199219 353.394531 248.289062 404.957031 248.289062 Z M 478.089844 361.929688 C 459.375 343.210938 433.519531 331.632812 404.957031 331.632812 C 376.394531 331.632812 350.539062 343.210938 331.824219 361.929688 C 313.109375 380.652344 301.535156 406.515625 301.535156 435.09375 C 301.535156 463.664062 313.109375 489.53125 331.824219 508.25 C 350.539062 526.972656 376.394531 538.550781 404.957031 538.550781 C 433.519531 538.550781 459.375 526.972656 478.089844 508.25 C 496.804688 489.53125 508.378906 463.664062 508.378906 435.09375 C 508.378906 406.515625 496.804688 380.652344 478.089844 361.929688 " fill-opacity="1" fill-rule="evenodd"/></g><path fill="#183d81" d="M 180.023438 268.441406 L 180.023438 483.550781 L 203.316406 483.550781 L 203.316406 539.71875 L 180.023438 539.71875 L 180.023438 597.554688 L 98.085938 597.554688 L 98.085938 539.71875 L 0.34375 539.71875 L 0.34375 483.550781 L 71.394531 268.441406 Z M 98.085938 483.550781 L 98.085938 343.542969 L 61.621094 483.550781 Z M 98.085938 483.550781 " fill-opacity="1" fill-rule="evenodd"/><path fill="#000000" d="M 465.355469 492.207031 L 467.832031 517.25 C 450.410156 530.609375 428.609375 538.550781 404.957031 538.550781 C 404.660156 538.550781 404.359375 538.546875 404.0625 538.546875 L 408.875 490.3125 L 465.355469 492.207031 " fill-opacity="1" fill-rule="evenodd"/><path fill="#000000" d="M 397.257812 492.207031 L 401.828125 538.503906 C 377.691406 537.785156 355.628906 528.800781 338.382812 514.273438 L 340.777344 490.3125 L 397.257812 492.207031 " fill-opacity="1" fill-rule="evenodd"/><path fill="#fefefe" d="M 304.40625 352.015625 C 301.667969 332.433594 303.421875 315.226562 304.011719 304.007812 C 320.101562 302.125 333.636719 300.1875 349.941406 298.277344 C 366.445312 296.34375 383.011719 294.429688 399.710938 292.425781 C 401.457031 292.664062 403.203125 292.867188 404.972656 293.066406 C 406.699219 292.867188 408.445312 292.664062 410.167969 292.425781 C 426.890625 294.429688 443.472656 296.34375 459.960938 298.277344 C 476.265625 300.1875 489.800781 302.125 505.933594 304.007812 C 506.480469 315.226562 508.230469 332.433594 505.496094 352.015625 C 498.875 399.414062 493.117188 447.054688 489.40625 494.835938 C 486.015625 499.625 482.230469 504.113281 478.089844 508.25 C 459.375 526.972656 433.519531 538.550781 404.957031 538.550781 C 376.394531 538.550781 350.539062 526.972656 331.824219 508.25 C 327.660156 504.089844 323.855469 499.574219 320.453125 494.753906 C 316.753906 447 311.023438 399.386719 304.40625 352.015625 " fill-opacity="1" fill-rule="evenodd"/><path fill="#dc977d" d="M 404.957031 237.488281 C 384.460938 237.488281 367.847656 259.105469 367.847656 285.773438 C 367.847656 312.4375 384.460938 334.054688 404.957031 334.054688 C 425.449219 334.054688 442.0625 312.4375 442.0625 285.773438 C 442.0625 259.105469 425.449219 237.488281 404.957031 237.488281 " fill-opacity="1" fill-rule="evenodd"/><path fill="#aadef7" d="M 404.789062 321.765625 L 368.421875 300.632812 L 381.824219 354.976562 L 404.957031 442.496094 L 441.492188 301.28125 L 404.789062 321.765625 " fill-opacity="1" fill-rule="evenodd"/><path fill="#183d81" d="M 404.957031 321.765625 L 412.507812 330.425781 L 406.457031 339.171875 L 413.785156 406.988281 L 404.957031 442.484375 L 396.128906 406.988281 L 403.496094 339.167969 L 397.402344 330.425781 L 404.957031 321.765625 " fill-opacity="1" fill-rule="evenodd"/><path fill="#93d6f5" d="M 404.957031 321.765625 L 391.828125 337.035156 L 363.929688 310.003906 L 366.851562 299.167969 L 404.957031 321.765625 " fill-opacity="1" fill-rule="evenodd"/><path fill="#93d6f5" d="M 404.957031 321.765625 L 418.085938 337.035156 L 445.984375 310.003906 L 443.0625 299.167969 L 404.957031 321.765625 " fill-opacity="1" fill-rule="evenodd"/><path fill="#e6e6e6" d="M 368.269531 293.066406 L 345.074219 304.164062 L 348.234375 335.230469 L 375.015625 344.082031 L 352.164062 358.527344 L 404.957031 442.496094 L 368.269531 293.066406 " fill-opacity="1" fill-rule="evenodd"/><path fill="#e6e6e6" d="M 441.644531 293.066406 L 464.839844 304.164062 L 461.679688 335.230469 L 434.898438 344.082031 L 457.75 358.527344 L 404.957031 442.496094 L 441.644531 293.066406 " fill-opacity="1" fill-rule="evenodd"/><g clip-path="url(#c60bdf0491)"><path fill="#f6b096" d="M 204.359375 237.457031 C 202.695312 239.8125 198.632812 238.496094 197 237.839844 L 191.289062 194.605469 C 191.246094 193.035156 191.636719 191.535156 192.363281 190.203125 C 193.03125 188.984375 194.347656 188.359375 195.714844 188.617188 C 197.078125 188.871094 198.082031 189.929688 198.261719 191.304688 L 201.757812 217.765625 L 204.359375 237.457031 " fill-opacity="1" fill-rule="evenodd"/></g><path fill="#f6b096" d="M 195.464844 232.503906 C 194.28125 235.011719 190.074219 234.707031 188.367188 234.464844 L 174.660156 196.070312 C 174.296875 194.550781 174.457031 193.042969 175.035156 191.648438 C 175.542969 190.414062 176.695312 189.664062 178.027344 189.695312 C 179.359375 189.726562 180.476562 190.53125 180.925781 191.789062 L 189.265625 215.152344 L 195.464844 232.503906 " fill-opacity="1" fill-rule="evenodd"/><path fill="#f6b096" d="M 187.875 234.621094 C 187.3125 237.132812 183.441406 237.707031 181.84375 237.835938 L 161.484375 205.570312 C 160.5625 203.675781 160.707031 201.679688 161.609375 199.796875 C 161.988281 198.996094 162.722656 198.503906 163.605469 198.453125 C 164.484375 198.398438 165.273438 198.800781 165.746094 199.550781 L 178.75 220.15625 L 187.875 234.621094 " fill-opacity="1" fill-rule="evenodd"/><path fill="#f6b096" d="M 182.800781 250.238281 C 182.269531 252.542969 178.710938 253.046875 177.242188 253.15625 L 153.957031 215.746094 C 153.164062 214.097656 153.316406 212.488281 154.078125 210.9375 C 154.464844 210.144531 155.199219 209.660156 156.082031 209.617188 C 156.964844 209.570312 157.742188 209.980469 158.210938 210.730469 L 169.914062 229.53125 L 182.800781 250.238281 " fill-opacity="1" fill-rule="evenodd"/><path fill="#f6b096" d="M 221.125 226.246094 C 215.605469 235.464844 214.714844 248.816406 206.96875 251.582031 C 202.203125 253.285156 197.058594 251.089844 195.484375 246.675781 C 193.90625 242.265625 196.496094 237.304688 201.265625 235.601562 C 203.671875 234.746094 206.171875 234.875 208.265625 235.789062 L 210.765625 231.800781 C 210.226562 228.171875 212.753906 222.859375 217.609375 221.574219 C 218.875 221.234375 220.152344 221.675781 220.941406 222.726562 C 221.726562 223.773438 221.800781 225.121094 221.125 226.246094 " fill-opacity="1" fill-rule="evenodd"/><path fill="#f6b096" d="M 170.414062 241.789062 C 167.652344 232.855469 177.414062 226.320312 183.210938 224.25 C 186.917969 222.925781 191.007812 222.695312 195.277344 222.953125 C 199.246094 222.675781 203.21875 225.246094 204.929688 229.453125 C 204.953125 229.5 204.972656 229.546875 204.992188 229.59375 L 208.453125 239.292969 C 210.511719 245.0625 208.265625 251.191406 203.457031 252.910156 L 186.402344 259 C 181.597656 260.71875 175.976562 257.402344 173.917969 251.632812 L 170.570312 242.257812 L 170.453125 241.933594 C 170.4375 241.886719 170.421875 241.835938 170.414062 241.789062 " fill-opacity="1" fill-rule="evenodd"/><path fill="#dc977d" d="M 178.6875 241.636719 C 187.367188 239.710938 192.820312 246.761719 194.128906 250.425781 C 192.820312 246.761719 192.140625 238.269531 200.503906 233.839844 L 178.6875 241.636719 " fill-opacity="1" fill-rule="evenodd"/><path fill="#aadef7" d="M 217.496094 246.9375 C 210.21875 248.441406 203.070312 250.296875 196.222656 252.921875 C 189.371094 255.542969 182.8125 258.945312 176.386719 262.6875 C 177.074219 264.480469 177.761719 266.277344 178.445312 268.070312 C 179.132812 269.859375 179.820312 271.652344 180.503906 273.441406 C 186.929688 269.699219 193.492188 266.304688 200.339844 263.679688 C 207.191406 261.054688 214.335938 259.199219 221.613281 257.695312 C 220.925781 255.902344 220.242188 254.109375 219.558594 252.316406 C 218.871094 250.523438 218.183594 248.730469 217.496094 246.9375 " fill-opacity="1" fill-rule="evenodd"/><path fill="#fefefe" d="M 332.164062 285.773438 C 345.828125 293.832031 391.988281 296.242188 388.910156 305.191406 C 384.4375 318.191406 259.871094 402.277344 240.066406 400.160156 C 220.265625 398.046875 185.265625 298.21875 176.890625 272.71875 C 190.578125 255.296875 208.503906 253.980469 221.867188 253.980469 C 236.546875 282.640625 241.324219 296.496094 255.402344 325.847656 L 310.425781 284 C 316.726562 279.210938 325.347656 281.75 332.164062 285.773438 " fill-opacity="1" fill-rule="evenodd"/><path fill="#999999" d="M 188.941406 274.328125 C 188.351562 272.574219 186.457031 271.632812 184.703125 272.21875 C 182.953125 272.804688 182.003906 274.699219 182.59375 276.453125 C 183.179688 278.207031 185.078125 279.152344 186.828125 278.5625 C 188.582031 277.976562 189.527344 276.082031 188.941406 274.328125 Z M 192.421875 284.734375 C 191.832031 282.980469 189.9375 282.039062 188.1875 282.625 C 186.433594 283.210938 185.492188 285.105469 186.078125 286.859375 C 186.667969 288.609375 188.5625 289.558594 190.3125 288.972656 C 192.066406 288.382812 193.007812 286.484375 192.421875 284.734375 " fill-opacity="1" fill-rule="evenodd"/><g clip-path="url(#b2e0c2520a)"><path fill="#f6b096" d="M 605.554688 237.457031 C 607.21875 239.8125 611.28125 238.496094 612.914062 237.839844 L 618.625 194.605469 C 618.667969 193.035156 618.277344 191.535156 617.550781 190.203125 C 616.882812 188.984375 615.566406 188.359375 614.199219 188.617188 C 612.835938 188.871094 611.835938 189.929688 611.652344 191.304688 L 608.15625 217.765625 L 605.554688 237.457031 " fill-opacity="1" fill-rule="evenodd"/></g><path fill="#f6b096" d="M 614.449219 232.503906 C 615.632812 235.011719 619.835938 234.707031 621.546875 234.464844 L 635.253906 196.070312 C 635.617188 194.550781 635.457031 193.042969 634.878906 191.648438 C 634.371094 190.414062 633.214844 189.664062 631.886719 189.695312 C 630.554688 189.726562 629.4375 190.53125 628.988281 191.789062 L 620.648438 215.152344 L 614.449219 232.503906 " fill-opacity="1" fill-rule="evenodd"/><path fill="#f6b096" d="M 622.039062 234.621094 C 622.601562 237.132812 626.472656 237.707031 628.070312 237.835938 L 648.429688 205.570312 C 649.351562 203.675781 649.203125 201.679688 648.304688 199.796875 C 647.925781 198.996094 647.191406 198.503906 646.308594 198.453125 C 645.425781 198.398438 644.640625 198.800781 644.167969 199.550781 L 631.164062 220.15625 L 622.039062 234.621094 " fill-opacity="1" fill-rule="evenodd"/><path fill="#f6b096" d="M 627.113281 250.238281 C 627.644531 252.542969 631.203125 253.046875 632.671875 253.15625 L 655.957031 215.746094 C 656.75 214.097656 656.597656 212.488281 655.835938 210.9375 C 655.445312 210.144531 654.714844 209.660156 653.832031 209.617188 C 652.949219 209.570312 652.171875 209.980469 651.703125 210.730469 L 640 229.53125 L 627.113281 250.238281 " fill-opacity="1" fill-rule="evenodd"/><path fill="#f6b096" d="M 588.789062 226.246094 C 594.308594 235.464844 595.199219 248.816406 602.945312 251.582031 C 607.710938 253.285156 612.855469 251.089844 614.429688 246.675781 C 616.007812 242.265625 613.417969 237.304688 608.648438 235.601562 C 606.242188 234.746094 603.742188 234.875 601.648438 235.789062 L 599.148438 231.800781 C 599.6875 228.171875 597.160156 222.859375 592.304688 221.574219 C 591.039062 221.234375 589.761719 221.675781 588.972656 222.726562 C 588.183594 223.773438 588.113281 225.121094 588.789062 226.246094 " fill-opacity="1" fill-rule="evenodd"/><path fill="#f6b096" d="M 639.5 241.789062 C 642.261719 232.855469 632.5 226.320312 626.707031 224.25 C 622.996094 222.925781 618.90625 222.695312 614.636719 222.953125 C 610.667969 222.675781 606.695312 225.246094 604.984375 229.453125 C 604.960938 229.5 604.941406 229.546875 604.925781 229.59375 L 601.460938 239.292969 C 599.402344 245.0625 601.648438 251.191406 606.457031 252.910156 L 623.507812 259 C 628.316406 260.71875 633.9375 257.402344 635.996094 251.632812 L 639.34375 242.257812 L 639.460938 241.933594 C 639.476562 241.886719 639.492188 241.835938 639.5 241.789062 " fill-opacity="1" fill-rule="evenodd"/><path fill="#dc977d" d="M 631.226562 241.636719 C 622.546875 239.710938 617.09375 246.761719 615.785156 250.425781 C 617.09375 246.761719 617.773438 238.269531 609.410156 233.839844 L 631.226562 241.636719 " fill-opacity="1" fill-rule="evenodd"/><path fill="#aadef7" d="M 592.421875 246.9375 C 599.695312 248.441406 606.84375 250.296875 613.691406 252.921875 C 620.542969 255.542969 627.101562 258.945312 633.527344 262.6875 C 632.839844 264.480469 632.152344 266.277344 631.46875 268.070312 C 630.78125 269.859375 630.09375 271.652344 629.40625 273.441406 C 622.984375 269.699219 616.421875 266.304688 609.574219 263.679688 C 602.722656 261.054688 595.574219 259.199219 588.300781 257.695312 C 588.988281 255.902344 589.671875 254.109375 590.355469 252.316406 C 591.042969 250.523438 591.730469 248.730469 592.421875 246.9375 " fill-opacity="1" fill-rule="evenodd"/><path fill="#fefefe" d="M 477.753906 285.773438 C 464.085938 293.832031 417.925781 296.242188 421.003906 305.191406 C 425.476562 318.191406 550.042969 402.277344 569.847656 400.160156 C 589.648438 398.046875 624.648438 298.21875 633.023438 272.71875 C 619.335938 255.296875 601.410156 253.980469 588.046875 253.980469 C 573.367188 282.640625 568.589844 296.496094 554.511719 325.847656 L 499.488281 284 C 493.1875 279.210938 484.566406 281.75 477.753906 285.773438 " fill-opacity="1" fill-rule="evenodd"/><path fill="#999999" d="M 620.976562 274.328125 C 621.5625 272.574219 623.457031 271.632812 625.210938 272.21875 C 626.964844 272.804688 627.910156 274.699219 627.320312 276.453125 C 626.734375 278.207031 624.835938 279.152344 623.085938 278.5625 C 621.332031 277.976562 620.386719 276.082031 620.976562 274.328125 Z M 617.492188 284.734375 C 618.078125 282.980469 619.976562 282.039062 621.726562 282.625 C 623.480469 283.210938 624.421875 285.105469 623.832031 286.859375 C 623.246094 288.609375 621.351562 289.558594 619.601562 288.972656 C 617.847656 288.382812 616.90625 286.484375 617.492188 284.734375 " fill-opacity="1" fill-rule="evenodd"/><path fill="#183d81" d="M 477.179688 373.265625 C 476.277344 373.265625 475.539062 374.003906 475.539062 374.910156 L 475.539062 375.199219 C 475.539062 376.101562 476.277344 376.84375 477.179688 376.84375 C 478.082031 376.84375 478.824219 376.101562 478.824219 375.199219 L 478.824219 374.910156 C 478.824219 374.003906 478.082031 373.265625 477.179688 373.265625 " fill-opacity="1" fill-rule="evenodd"/><path fill="#333333" d="M 479.519531 375.472656 L 474.84375 375.472656 L 474.84375 393.371094 L 479.519531 393.371094 L 479.519531 375.472656 " fill-opacity="1" fill-rule="evenodd"/><path fill="#e6e6e6" d="M 479.5625 382.621094 L 439.882812 382.621094 L 439.882812 433.671875 L 480.390625 433.671875 L 480.390625 382.621094 Z M 441.535156 384.703125 L 478.734375 384.703125 L 478.734375 431.589844 L 441.535156 431.589844 L 441.535156 384.703125 " fill-opacity="1" fill-rule="evenodd"/><path fill="#e6e6e6" d="M 482.046875 382.621094 L 438.226562 382.621094 L 438.226562 396.242188 L 482.046875 396.242188 L 482.046875 382.621094 " fill-opacity="1" fill-rule="evenodd"/><path fill="#1a1a1a" d="M 477.78125 379.730469 L 476.578125 379.730469 L 476.578125 394.835938 L 477.78125 394.835938 L 477.78125 379.730469 " fill-opacity="1" fill-rule="evenodd"/><path fill="#808080" d="M 327.664062 388.832031 L 330.519531 389.566406 C 335.3125 390.792969 340.171875 389.945312 344.140625 387.59375 C 348.105469 385.246094 351.179688 381.386719 352.410156 376.589844 L 363.328125 333.894531 L 360.121094 333.074219 L 349.199219 375.769531 C 348.199219 379.679688 345.691406 382.828125 342.453125 384.746094 C 339.214844 386.664062 335.25 387.355469 331.339844 386.351562 L 328.484375 385.625 L 327.664062 388.832031 " fill-opacity="1" fill-rule="evenodd"/><path fill="#183d81" d="M 330.144531 384.78125 L 327.808594 384.183594 C 326.273438 383.789062 324.695312 384.726562 324.300781 386.261719 C 323.90625 387.800781 324.84375 389.378906 326.378906 389.773438 L 328.71875 390.371094 C 330.253906 390.765625 331.832031 389.828125 332.222656 388.292969 C 332.617188 386.753906 331.683594 385.175781 330.144531 384.78125 " fill-opacity="1" fill-rule="evenodd"/><path fill="#b3b3b3" d="M 362.367188 388.832031 L 359.515625 389.566406 C 354.714844 390.792969 349.855469 389.945312 345.890625 387.59375 C 341.925781 385.246094 338.851562 381.386719 337.625 376.589844 L 326.703125 333.894531 L 329.910156 333.074219 L 340.832031 375.769531 C 341.832031 379.679688 344.339844 382.828125 347.578125 384.746094 C 350.816406 386.664062 354.78125 387.355469 358.691406 386.351562 L 361.546875 385.625 L 362.367188 388.832031 " fill-opacity="1" fill-rule="evenodd"/><path fill="#183d81" d="M 359.886719 384.78125 L 362.222656 384.183594 C 363.757812 383.789062 365.335938 384.726562 365.730469 386.261719 C 366.121094 387.800781 365.1875 389.378906 363.648438 389.773438 L 361.316406 390.371094 C 359.78125 390.765625 358.199219 389.828125 357.804688 388.292969 C 357.410156 386.753906 358.347656 385.175781 359.886719 384.78125 " fill-opacity="1" fill-rule="evenodd"/><path fill="#183d81" d="M 330.90625 332.679688 C 330.90625 334.054688 329.792969 335.164062 328.421875 335.164062 C 327.050781 335.164062 325.9375 334.054688 325.9375 332.679688 C 325.9375 327.394531 328.078125 322.609375 331.542969 319.144531 C 335.003906 315.683594 339.789062 313.539062 345.074219 313.539062 C 350.355469 313.539062 355.140625 315.683594 358.605469 319.144531 C 362.066406 322.609375 364.207031 327.394531 364.207031 332.679688 C 364.207031 334.054688 363.097656 335.164062 361.722656 335.164062 C 360.351562 335.164062 359.238281 334.054688 359.238281 332.679688 C 359.238281 328.769531 357.65625 325.222656 355.089844 322.660156 C 352.527344 320.09375 348.988281 318.507812 345.074219 318.507812 C 341.160156 318.507812 337.617188 320.097656 335.054688 322.660156 C 332.492188 325.222656 330.90625 328.769531 330.90625 332.679688 " fill-opacity="1" fill-rule="evenodd"/><path fill="#183d81" d="M 345.074219 307.644531 C 346.4375 307.644531 347.558594 308.761719 347.558594 310.128906 L 347.558594 314.65625 C 347.558594 316.023438 346.4375 317.140625 345.074219 317.140625 C 343.707031 317.140625 342.589844 316.023438 342.589844 314.65625 L 342.589844 310.128906 C 342.589844 308.761719 343.707031 307.644531 345.074219 307.644531 " fill-opacity="1" fill-rule="evenodd"/><path fill="#183d81" d="M 343.386719 309.972656 C 343.375 309.890625 340.105469 281.347656 401.742188 281.570312 L 401.742188 284.871094 C 343.761719 284.664062 346.664062 309.601562 346.671875 309.675781 L 343.386719 309.972656 " fill-opacity="1" fill-rule="evenodd"/><path fill="#cccccc" d="M 462.683594 345.660156 C 466.160156 345.660156 468.980469 348.480469 468.980469 351.960938 C 468.980469 355.441406 466.160156 358.261719 462.683594 358.261719 C 459.207031 358.261719 456.386719 355.441406 456.386719 351.960938 C 456.386719 348.480469 459.207031 345.660156 462.683594 345.660156 " fill-opacity="1" fill-rule="evenodd"/><path fill="#e6e6e6" d="M 461.957031 345.660156 C 465.433594 345.660156 468.253906 348.480469 468.253906 351.960938 C 468.253906 355.441406 465.433594 358.261719 461.957031 358.261719 C 458.476562 358.261719 455.65625 355.441406 455.65625 351.960938 C 455.65625 348.480469 458.476562 345.660156 461.957031 345.660156 " fill-opacity="1" fill-rule="evenodd"/><path fill="#999999" d="M 462.070312 347.871094 C 464.328125 347.871094 466.160156 349.703125 466.160156 351.960938 C 466.160156 354.21875 464.328125 356.050781 462.070312 356.050781 C 459.808594 356.050781 457.980469 354.21875 457.980469 351.960938 C 457.980469 349.703125 459.808594 347.871094 462.070312 347.871094 " fill-opacity="1" fill-rule="evenodd"/><path fill="#183d81" d="M 404.039062 284.425781 C 403.128906 284.425781 402.390625 283.6875 402.390625 282.773438 C 402.390625 281.863281 403.128906 281.125 404.039062 281.125 C 417.945312 281.074219 428.503906 282.472656 436.519531 284.652344 C 446.863281 287.464844 453.082031 291.609375 456.816406 295.683594 C 462.921875 302.34375 462.714844 309.460938 462.488281 317.207031 C 462.445312 318.542969 462.40625 319.902344 462.40625 321.570312 L 462.40625 347.578125 C 462.40625 348.492188 461.664062 349.234375 460.753906 349.234375 C 459.835938 349.234375 459.097656 348.492188 459.097656 347.578125 L 459.097656 321.570312 C 459.097656 320.253906 459.140625 318.671875 459.1875 317.117188 C 459.394531 310.070312 459.585938 303.59375 454.382812 297.921875 C 451.011719 294.242188 445.300781 290.46875 435.652344 287.847656 C 427.871094 285.730469 417.597656 284.375 404.039062 284.425781 " fill-opacity="1" fill-rule="evenodd"/><path fill="#cccccc" d="M 459.769531 347.871094 C 462.027344 347.871094 463.859375 349.703125 463.859375 351.960938 C 463.859375 354.21875 462.027344 356.050781 459.769531 356.050781 C 457.511719 356.050781 455.679688 354.21875 455.679688 351.960938 C 455.679688 349.703125 457.511719 347.871094 459.769531 347.871094 " fill-opacity="1" fill-rule="evenodd"/><path fill="#e6e6e6" d="M 373.253906 532.109375 L 370.785156 532.769531 C 371.746094 533.105469 372.71875 533.429688 373.691406 533.738281 L 373.253906 532.109375 " fill-opacity="1" fill-rule="evenodd"/><path fill="#e6e6e6" d="M 399.441406 453.933594 L 410.464844 453.933594 L 410.464844 456.59375 L 399.441406 456.59375 L 399.441406 453.933594 " fill-opacity="1" fill-rule="evenodd"/><path fill="#999999" d="M 404.953125 451.457031 C 407.050781 451.457031 408.753906 453.164062 408.753906 455.261719 C 408.753906 457.359375 407.050781 459.066406 404.953125 459.066406 C 402.851562 459.066406 401.152344 457.359375 401.152344 455.261719 C 401.152344 453.164062 402.851562 451.457031 404.953125 451.457031 " fill-opacity="1" fill-rule="evenodd"/><path fill="#e6e6e6" d="M 399.441406 511.265625 L 410.464844 511.265625 L 410.464844 513.925781 L 399.441406 513.925781 L 399.441406 511.265625 " fill-opacity="1" fill-rule="evenodd"/><path fill="#999999" d="M 404.953125 508.792969 C 407.050781 508.792969 408.753906 510.496094 408.753906 512.59375 C 408.753906 514.695312 407.050781 516.394531 404.953125 516.394531 C 402.851562 516.394531 401.152344 514.695312 401.152344 512.59375 C 401.152344 510.496094 402.851562 508.792969 404.953125 508.792969 " fill-opacity="1" fill-rule="evenodd"/><path fill="#f6b096" d="M 455.269531 268.765625 C 460.683594 268.765625 465.074219 273.523438 465.074219 279.398438 C 465.074219 285.273438 460.683594 290.035156 455.269531 290.035156 C 449.855469 290.035156 445.464844 285.273438 445.464844 279.398438 C 445.464844 273.523438 449.855469 268.765625 455.269531 268.765625 " fill-opacity="1" fill-rule="evenodd"/><path fill="#dc977d" d="M 455.269531 273.84375 C 458.097656 273.84375 460.390625 276.332031 460.390625 279.398438 C 460.390625 282.46875 458.097656 284.957031 455.269531 284.957031 C 452.441406 284.957031 450.148438 282.46875 450.148438 279.398438 C 450.148438 276.332031 452.441406 273.84375 455.269531 273.84375 " fill-opacity="1" fill-rule="evenodd"/><path fill="#f6b096" d="M 354.644531 268.765625 C 360.058594 268.765625 364.449219 273.523438 364.449219 279.398438 C 364.449219 285.273438 360.058594 290.035156 354.644531 290.035156 C 349.230469 290.035156 344.839844 285.273438 344.839844 279.398438 C 344.839844 273.523438 349.230469 268.765625 354.644531 268.765625 " fill-opacity="1" fill-rule="evenodd"/><path fill="#dc977d" d="M 354.644531 273.84375 C 357.472656 273.84375 359.765625 276.332031 359.765625 279.398438 C 359.765625 282.46875 357.472656 284.957031 354.644531 284.957031 C 351.816406 284.957031 349.523438 282.46875 349.523438 279.398438 C 349.523438 276.332031 351.816406 273.84375 354.644531 273.84375 " fill-opacity="1" fill-rule="evenodd"/><path fill="#f6b096" d="M 389.40625 325.804688 C 376.496094 313.234375 357.296875 304.9375 357.296875 304.9375 L 357.296875 262.417969 C 357.296875 262.417969 356.058594 207.523438 403.855469 212.730469 C 451.652344 207.523438 452.890625 262.417969 452.890625 262.417969 L 452.890625 304.9375 C 452.890625 304.9375 432.980469 315.425781 420.929688 325.847656 C 416.011719 324.40625 410.648438 323.621094 405.09375 323.621094 C 399.539062 323.621094 394.28125 324.394531 389.40625 325.804688 " fill-opacity="1" fill-rule="evenodd"/><path fill="#e6e6e6" d="M 389.40625 325.804688 C 386.066406 322.558594 382.3125 319.59375 378.574219 316.984375 C 378.507812 316.082031 378.472656 315.164062 378.472656 314.242188 C 378.472656 297.015625 390.390625 283.046875 405.09375 283.046875 C 419.796875 283.046875 431.714844 297.015625 431.714844 314.242188 C 431.714844 315.453125 431.652344 316.648438 431.539062 317.820312 C 427.796875 320.375 424.089844 323.113281 420.929688 325.847656 C 416.011719 324.40625 410.648438 323.621094 405.09375 323.621094 C 399.539062 323.621094 394.28125 324.394531 389.40625 325.804688 " fill-opacity="1" fill-rule="evenodd"/><path fill="#e6e6e6" d="M 443.394531 227.078125 C 443.394531 227.078125 437.441406 238.546875 438.714844 248.3125 C 439.988281 258.078125 449.953125 270.074219 447.523438 282.175781 C 445.09375 294.273438 443.222656 296.292969 443.222656 296.292969 L 454.53125 286.953125 C 454.53125 286.953125 460.046875 246.582031 443.394531 227.078125 " fill-opacity="1" fill-rule="evenodd"/><path fill="#e6e6e6" d="M 365.277344 227.078125 C 365.277344 227.078125 371.226562 238.546875 369.953125 248.3125 C 368.679688 258.078125 358.714844 270.074219 361.148438 282.175781 C 363.578125 294.273438 365.449219 296.292969 365.449219 296.292969 L 354.140625 286.953125 C 354.140625 286.953125 348.625 246.582031 365.277344 227.078125 " fill-opacity="1" fill-rule="evenodd"/><path fill="#dc977d" d="M 413.222656 279.109375 C 412.136719 281.519531 406.375 283.882812 404.617188 284.5625 C 402.859375 283.882812 397.097656 281.519531 396.015625 279.109375 C 398.542969 279.785156 401.480469 280.167969 404.617188 280.167969 C 407.75 280.167969 410.695312 279.785156 413.222656 279.109375 " fill-opacity="1" fill-rule="evenodd"/><path fill="#dc977d" d="M 414.171875 252.300781 C 414.140625 252.339844 402.90625 266.335938 413.222656 279.109375 L 411.480469 280.09375 C 405.070312 270.273438 407.261719 260.859375 414.171875 252.300781 " fill-opacity="1" fill-rule="evenodd"/><path fill="#e6e6e6" d="M 386.792969 241.308594 C 389.8125 239.550781 393.4375 239.761719 396.183594 241.546875 L 382.34375 249.585938 C 382.15625 246.320312 383.765625 243.066406 386.792969 241.308594 " fill-opacity="1" fill-rule="evenodd"/><path fill="#e6e6e6" d="M 427.40625 241.308594 C 424.382812 239.550781 420.757812 239.761719 418.011719 241.546875 L 431.851562 249.585938 C 432.042969 246.320312 430.429688 243.066406 427.40625 241.308594 " fill-opacity="1" fill-rule="evenodd"/><path fill="#ffffff" d="M 389.824219 253.535156 C 394.027344 253.535156 397.433594 257.773438 397.433594 262.996094 C 397.433594 268.222656 394.027344 272.460938 389.824219 272.460938 C 385.621094 272.460938 382.214844 268.222656 382.214844 262.996094 C 382.214844 257.773438 385.621094 253.535156 389.824219 253.535156 " fill-opacity="1" fill-rule="evenodd"/><path fill="#00ccff" d="M 387.867188 254.976562 C 385.867188 254.976562 384.246094 256.597656 384.246094 258.59375 C 384.246094 260.59375 385.867188 262.210938 387.867188 262.210938 C 389.863281 262.210938 391.484375 260.59375 391.484375 258.59375 C 391.484375 256.597656 389.863281 254.976562 387.867188 254.976562 " fill-opacity="1" fill-rule="evenodd"/><path fill="#ffffff" d="M 390.199219 254.671875 C 389.332031 254.671875 388.628906 255.371094 388.628906 256.242188 C 388.628906 257.109375 389.332031 257.816406 390.199219 257.816406 C 391.066406 257.816406 391.773438 257.109375 391.773438 256.242188 C 391.773438 255.371094 391.066406 254.671875 390.199219 254.671875 " fill-opacity="1" fill-rule="evenodd"/><path fill="#ffffff" d="M 386.871094 259.652344 C 386.320312 259.652344 385.875 260.097656 385.875 260.644531 C 385.875 261.195312 386.320312 261.640625 386.871094 261.640625 C 387.421875 261.640625 387.867188 261.195312 387.867188 260.644531 C 387.867188 260.097656 387.421875 259.652344 386.871094 259.652344 " fill-opacity="1" fill-rule="evenodd"/><path fill="#000000" d="M 387.867188 256.46875 C 386.773438 256.46875 385.890625 257.351562 385.890625 258.445312 C 385.890625 259.535156 386.773438 260.421875 387.867188 260.421875 C 388.957031 260.421875 389.835938 259.535156 389.835938 258.445312 C 389.835938 257.351562 388.957031 256.46875 387.867188 256.46875 " fill-opacity="1" fill-rule="evenodd"/><path fill="#ffffff" d="M 421.714844 253.535156 C 425.914062 253.535156 429.324219 257.773438 429.324219 262.996094 C 429.324219 268.222656 425.914062 272.460938 421.714844 272.460938 C 417.511719 272.460938 414.105469 268.222656 414.105469 262.996094 C 414.105469 257.773438 417.511719 253.535156 421.714844 253.535156 " fill-opacity="1" fill-rule="evenodd"/><path fill="#00ccff" d="M 419.625 254.976562 C 417.628906 254.976562 416.007812 256.597656 416.007812 258.59375 C 416.007812 260.59375 417.628906 262.210938 419.625 262.210938 C 421.625 262.210938 423.242188 260.59375 423.242188 258.59375 C 423.242188 256.597656 421.625 254.976562 419.625 254.976562 " fill-opacity="1" fill-rule="evenodd"/><path fill="#ffffff" d="M 421.960938 254.671875 C 421.09375 254.671875 420.390625 255.371094 420.390625 256.242188 C 420.390625 257.109375 421.09375 257.816406 421.960938 257.816406 C 422.832031 257.816406 423.535156 257.109375 423.535156 256.242188 C 423.535156 255.371094 422.832031 254.671875 421.960938 254.671875 " fill-opacity="1" fill-rule="evenodd"/><path fill="#ffffff" d="M 418.632812 259.652344 C 418.082031 259.652344 417.636719 260.097656 417.636719 260.644531 C 417.636719 261.195312 418.082031 261.640625 418.632812 261.640625 C 419.179688 261.640625 419.625 261.195312 419.625 260.644531 C 419.625 260.097656 419.179688 259.652344 418.632812 259.652344 " fill-opacity="1" fill-rule="evenodd"/><path fill="#000000" d="M 419.625 256.46875 C 418.535156 256.46875 417.648438 257.351562 417.648438 258.445312 C 417.648438 259.535156 418.535156 260.421875 419.625 260.421875 C 420.71875 260.421875 421.597656 259.535156 421.597656 258.445312 C 421.597656 257.351562 420.71875 256.46875 419.625 256.46875 " fill-opacity="1" fill-rule="evenodd"/><path fill="#000000" d="M 411.730469 262.761719 C 411.507812 263.375 411.335938 264.011719 411.226562 264.65625 C 411.113281 265.28125 411.058594 265.921875 411.054688 266.574219 C 410.960938 266.496094 410.863281 266.417969 410.761719 266.347656 C 409.601562 265.496094 408.179688 265.007812 406.675781 265.007812 C 405.429688 265.007812 404.230469 265.34375 403.191406 265.949219 C 402.925781 266.105469 402.671875 266.277344 402.429688 266.460938 C 402.421875 265.847656 402.363281 265.246094 402.261719 264.65625 C 402.148438 264.011719 401.976562 263.375 401.753906 262.761719 L 401.554688 262.210938 L 380.773438 262.210938 L 380.574219 262.761719 C 380.351562 263.375 380.179688 264.011719 380.066406 264.65625 C 379.953125 265.292969 379.898438 265.945312 379.898438 266.613281 C 379.898438 269.722656 381.15625 272.542969 383.195312 274.582031 C 385.234375 276.621094 388.050781 277.882812 391.164062 277.882812 C 394.273438 277.882812 397.09375 276.621094 399.132812 274.582031 C 400.558594 273.15625 401.605469 271.347656 402.101562 269.324219 C 402.570312 268.507812 403.238281 267.847656 404.023438 267.390625 C 404.8125 266.933594 405.726562 266.679688 406.675781 266.679688 C 407.824219 266.679688 408.90625 267.046875 409.785156 267.691406 C 410.570312 268.265625 411.195312 269.054688 411.570312 269.988281 C 412.117188 271.746094 413.085938 273.3125 414.351562 274.582031 C 416.390625 276.621094 419.210938 277.882812 422.324219 277.882812 C 425.433594 277.882812 428.25 276.621094 430.289062 274.582031 C 432.328125 272.542969 433.589844 269.722656 433.589844 266.613281 C 433.589844 265.945312 433.53125 265.292969 433.417969 264.65625 C 433.304688 264.011719 433.132812 263.375 432.910156 262.761719 L 432.710938 262.210938 L 411.933594 262.210938 Z M 413.277344 269.84375 C 413.25 269.75 413.222656 269.660156 413.1875 269.566406 C 412.886719 268.640625 412.722656 267.644531 412.722656 266.613281 C 412.722656 266.039062 412.773438 265.484375 412.867188 264.941406 C 412.929688 264.578125 413.011719 264.222656 413.113281 263.882812 L 431.527344 263.882812 C 431.628906 264.222656 431.714844 264.578125 431.777344 264.941406 C 431.871094 265.484375 431.921875 266.039062 431.921875 266.613281 C 431.921875 269.261719 430.847656 271.664062 429.109375 273.402344 C 427.371094 275.140625 424.972656 276.214844 422.324219 276.214844 C 419.671875 276.214844 417.269531 275.140625 415.535156 273.402344 C 414.539062 272.40625 413.761719 271.195312 413.277344 269.84375 Z M 381.707031 264.941406 C 381.769531 264.578125 381.855469 264.222656 381.957031 263.882812 L 400.371094 263.882812 C 400.472656 264.222656 400.554688 264.578125 400.617188 264.941406 C 400.710938 265.484375 400.761719 266.039062 400.761719 266.613281 C 400.761719 269.261719 399.6875 271.664062 397.949219 273.402344 C 396.214844 275.140625 393.816406 276.214844 391.164062 276.214844 C 388.511719 276.214844 386.113281 275.140625 384.375 273.402344 C 382.636719 271.664062 381.5625 269.261719 381.5625 266.613281 C 381.5625 266.039062 381.613281 265.484375 381.707031 264.941406 " fill-opacity="1" fill-rule="evenodd"/><path fill="#cccccc" d="M 413.445312 308.84375 C 407.84375 311.027344 406.085938 316.871094 406.085938 319.347656 C 406.085938 316.871094 404.675781 312.019531 398.730469 312.726562 L 413.445312 308.84375 " fill-opacity="1" fill-rule="evenodd"/><path fill="#ffffff" d="M 386.429688 303.113281 C 386.429688 298.570312 395.039062 294.886719 405.65625 294.886719 C 415.425781 294.886719 421.25 297.496094 424.757812 302.175781 C 417.160156 294.886719 400.933594 296.726562 394.621094 301.347656 C 388.3125 305.964844 386.429688 303.113281 386.429688 303.113281 " fill-opacity="1" fill-rule="evenodd"/><path fill="#a80403" d="M 424.441406 301.769531 C 424.546875 301.902344 424.65625 302.039062 424.757812 302.175781 C 417.160156 294.886719 400.933594 296.726562 394.621094 301.347656 C 389.777344 304.890625 387.542969 304.035156 386.765625 303.445312 C 392.796875 297.300781 413.003906 291.707031 424.441406 301.769531 " fill-opacity="1" fill-rule="evenodd"/><path fill="#cccccc" d="M 397.472656 303.335938 C 397.4375 303.355469 385.050781 309.707031 383.625 304.613281 C 381.6875 307.152344 387.683594 311.421875 397.472656 303.335938 " fill-opacity="1" fill-rule="evenodd"/></svg>