<svg xmlns="http://www.w3.org/2000/svg" xmlns:xlink="http://www.w3.org/1999/xlink" width="500" zoomAndPan="magnify" viewBox="0 0 375 374.999991" height="500" preserveAspectRatio="xMidYMid meet" version="1.0"><defs><clipPath id="e75c0cb992"><path d="M 71 118 L 365 118 L 365 367.78125 L 71 367.78125 Z M 71 118 " clip-rule="nonzero"/></clipPath><clipPath id="4fdfa56d10"><path d="M 2 7.03125 L 224 7.03125 L 224 230 L 2 230 Z M 2 7.03125 " clip-rule="nonzero"/></clipPath></defs><path fill="#000000" d="M 113.925781 119.417969 C 108.371094 119.417969 102.820312 116.644531 104.207031 112.480469 L 106.984375 54.207031 C 106.984375 51.429688 108.371094 48.65625 113.925781 48.65625 C 118.089844 48.65625 120.867188 51.429688 120.867188 54.207031 L 125.03125 112.480469 C 125.03125 116.644531 119.476562 119.417969 113.925781 119.417969 Z M 113.925781 119.417969 " fill-opacity="1" fill-rule="nonzero"/><path fill="#000000" d="M 126.417969 120.804688 L 88.9375 154.105469 C 87.546875 155.492188 83.382812 156.882812 79.21875 152.71875 C 75.054688 148.554688 76.441406 144.394531 77.832031 143.007812 L 109.757812 105.542969 C 112.535156 102.769531 129.195312 118.03125 126.417969 120.804688 Z M 126.417969 120.804688 " fill-opacity="1" fill-rule="nonzero"/><path fill="#000000" d="M 130.582031 118.03125 C 130.582031 118.578125 130.554688 119.121094 130.503906 119.664062 C 130.449219 120.207031 130.371094 120.746094 130.261719 121.28125 C 130.15625 121.8125 130.023438 122.34375 129.867188 122.863281 C 129.707031 123.386719 129.523438 123.898438 129.316406 124.402344 C 129.105469 124.90625 128.875 125.398438 128.617188 125.878906 C 128.359375 126.359375 128.078125 126.828125 127.777344 127.28125 C 127.472656 127.734375 127.148438 128.171875 126.800781 128.59375 C 126.457031 129.015625 126.089844 129.417969 125.703125 129.804688 C 125.316406 130.191406 124.914062 130.554688 124.492188 130.902344 C 124.070312 131.246094 123.632812 131.570312 123.179688 131.875 C 122.726562 132.179688 122.257812 132.457031 121.777344 132.714844 C 121.296875 132.972656 120.804688 133.207031 120.300781 133.414062 C 119.796875 133.621094 119.28125 133.804688 118.761719 133.964844 C 118.238281 134.121094 117.710938 134.253906 117.175781 134.359375 C 116.640625 134.46875 116.101562 134.546875 115.558594 134.601562 C 115.015625 134.65625 114.46875 134.679688 113.925781 134.679688 C 113.378906 134.679688 112.835938 134.65625 112.292969 134.601562 C 111.75 134.546875 111.210938 134.46875 110.675781 134.359375 C 110.140625 134.253906 109.609375 134.121094 109.089844 133.964844 C 108.566406 133.804688 108.054688 133.621094 107.550781 133.414062 C 107.046875 133.207031 106.550781 132.972656 106.070312 132.714844 C 105.589844 132.457031 105.121094 132.179688 104.667969 131.875 C 104.214844 131.570312 103.777344 131.246094 103.355469 130.902344 C 102.933594 130.554688 102.53125 130.191406 102.144531 129.804688 C 101.757812 129.417969 101.394531 129.015625 101.046875 128.59375 C 100.699219 128.171875 100.375 127.734375 100.074219 127.28125 C 99.769531 126.828125 99.488281 126.359375 99.234375 125.878906 C 98.976562 125.398438 98.742188 124.90625 98.535156 124.402344 C 98.324219 123.898438 98.140625 123.386719 97.984375 122.863281 C 97.824219 122.34375 97.691406 121.8125 97.585938 121.28125 C 97.480469 120.746094 97.398438 120.207031 97.347656 119.664062 C 97.292969 119.121094 97.265625 118.578125 97.265625 118.03125 C 97.265625 117.484375 97.292969 116.941406 97.347656 116.398438 C 97.398438 115.855469 97.480469 115.316406 97.585938 114.78125 C 97.691406 114.25 97.824219 113.71875 97.984375 113.199219 C 98.140625 112.675781 98.324219 112.164062 98.535156 111.660156 C 98.742188 111.15625 98.976562 110.664062 99.234375 110.183594 C 99.488281 109.703125 99.769531 109.234375 100.074219 108.78125 C 100.375 108.328125 100.699219 107.890625 101.046875 107.46875 C 101.394531 107.046875 101.757812 106.644531 102.144531 106.257812 C 102.53125 105.871094 102.933594 105.507812 103.355469 105.160156 C 103.777344 104.816406 104.214844 104.488281 104.667969 104.1875 C 105.121094 103.882812 105.589844 103.605469 106.070312 103.347656 C 106.550781 103.089844 107.046875 102.855469 107.550781 102.648438 C 108.054688 102.441406 108.566406 102.257812 109.089844 102.097656 C 109.609375 101.941406 110.140625 101.808594 110.675781 101.699219 C 111.210938 101.59375 111.75 101.515625 112.292969 101.460938 C 112.835938 101.40625 113.378906 101.382812 113.925781 101.382812 C 114.46875 101.382812 115.015625 101.40625 115.558594 101.460938 C 116.101562 101.515625 116.640625 101.59375 117.175781 101.699219 C 117.710938 101.808594 118.238281 101.941406 118.761719 102.097656 C 119.28125 102.257812 119.796875 102.441406 120.300781 102.648438 C 120.804688 102.855469 121.296875 103.089844 121.777344 103.347656 C 122.257812 103.605469 122.726562 103.882812 123.179688 104.1875 C 123.632812 104.488281 124.070312 104.816406 124.492188 105.160156 C 124.914062 105.507812 125.316406 105.871094 125.703125 106.257812 C 126.089844 106.644531 126.457031 107.046875 126.800781 107.46875 C 127.148438 107.890625 127.472656 108.328125 127.777344 108.78125 C 128.078125 109.234375 128.359375 109.703125 128.617188 110.183594 C 128.875 110.664062 129.105469 111.15625 129.316406 111.660156 C 129.523438 112.164062 129.707031 112.675781 129.867188 113.199219 C 130.023438 113.71875 130.15625 114.25 130.261719 114.78125 C 130.371094 115.316406 130.449219 115.855469 130.503906 116.398438 C 130.554688 116.941406 130.582031 117.484375 130.582031 118.03125 Z M 130.582031 118.03125 " fill-opacity="1" fill-rule="nonzero"/><g clip-path="url(#e75c0cb992)"><path fill="#000000" d="M 358.25 326.15625 L 243.027344 136.070312 C 229.148438 112.480469 205.546875 112.480469 191.664062 136.070312 L 77.832031 326.15625 C 63.949219 349.742188 75.054688 367.78125 102.820312 367.78125 L 331.875 367.78125 C 361.027344 367.78125 372.132812 348.355469 358.25 326.15625 Z M 202.769531 188.792969 C 206.933594 184.632812 212.488281 181.855469 218.039062 181.855469 C 224.980469 181.855469 229.148438 184.632812 233.3125 188.792969 C 237.476562 192.957031 238.863281 198.507812 238.863281 204.054688 C 238.863281 209.605469 230.535156 249.84375 227.757812 278.980469 L 206.933594 278.980469 C 204.160156 249.84375 195.828125 209.605469 195.828125 204.054688 C 195.828125 198.507812 198.605469 192.957031 202.769531 188.792969 Z M 233.3125 327.542969 C 229.148438 331.707031 223.59375 333.09375 218.039062 333.09375 C 212.488281 333.09375 206.933594 331.707031 202.769531 327.542969 C 198.605469 323.382812 195.828125 319.21875 195.828125 312.28125 C 195.828125 306.730469 198.605469 301.179688 202.769531 297.019531 C 206.933594 292.855469 212.488281 291.46875 218.039062 291.46875 C 223.59375 291.46875 229.148438 292.855469 233.3125 297.019531 C 237.476562 301.179688 240.253906 306.730469 240.253906 312.28125 C 240.253906 319.21875 237.476562 323.382812 233.3125 327.542969 Z M 233.3125 327.542969 " fill-opacity="1" fill-rule="nonzero"/></g><g clip-path="url(#4fdfa56d10)"><path fill="#000000" d="M 120.867188 229.03125 L 140.300781 197.117188 C 130.582031 199.894531 122.253906 201.28125 113.925781 201.28125 C 68.113281 201.28125 30.632812 163.820312 30.632812 118.03125 C 30.632812 72.242188 68.113281 34.78125 113.925781 34.78125 C 156.960938 34.78125 193.054688 68.082031 197.21875 111.09375 C 202.769531 106.929688 211.101562 104.15625 218.039062 104.15625 C 219.429688 104.15625 222.207031 104.15625 223.59375 104.15625 C 216.652344 48.65625 169.453125 7.03125 113.925781 7.03125 C 52.84375 7.03125 2.867188 56.980469 2.867188 118.03125 C 2.867188 179.082031 52.84375 229.03125 113.925781 229.03125 C 116.699219 229.03125 118.089844 229.03125 120.867188 229.03125 Z M 120.867188 229.03125 " fill-opacity="1" fill-rule="nonzero"/></g></svg>